<mxfile host="app.diagrams.net" modified="2024-04-08T08:20:28.158Z" agent="Mozilla/5.0 (Windows NT 10.0; Win64; x64) AppleWebKit/537.36 (KHTML, like Gecko) Chrome/122.0.0.0 Safari/537.36" version="24.2.2" etag="AMmGDzosG2bQR5-T3Ae8" type="github">
  <diagram name="Page-1" id="Xmd1pO7YYCA5rg62J2ld">
    <mxGraphModel>
      <root>
        <mxCell id="0" />
        <mxCell id="1" parent="0" />
      </root>
    </mxGraphModel>
  </diagram>
</mxfile>
